<!-- Generated by IcoMoon.io -->
<svg version="1.1" xmlns="http://www.w3.org/2000/svg" width="32" height="32" viewBox="0 0 32 32">
<title>logotype-ricardo</title>
<path fill="#abc4c5" d="M31.888 15.607c-0.112-8.646-7.186-15.607-15.719-15.607h-0.561c-8.758 0.225-15.719 7.411-15.607 16.168v0.337c0.112 8.646 7.186 15.607 15.832 15.607h0.561c8.758-0.112 15.719-7.298 15.607-16.056l-0.112-0.449zM21.109 30.203c-0.112-0.674-0.674-1.123-1.347-1.123h-1.011c-0.561 0-1.011-0.449-1.011-1.011v0c0-0.561 0.449-1.011 1.011-1.011v0c0.337 0 0.674-0.337 0.674-0.674v-0.337c0-0.449 0.337-0.898 0.898-0.898v0c0.674 0 1.123-0.561 1.123-1.235v-3.481c0-0.561-0.449-1.011-1.011-1.011v0c-0.561 0-1.011 0.449-1.011 1.011v0.337c0 0.449-0.337 0.786-0.786 0.786v0c-0.449 0-0.786-0.337-0.786-0.786v-0.225c0-0.561-0.449-1.011-1.123-1.011h-2.807c-0.561 0-1.011 0.449-1.011 1.123l0.112 4.604c0 0.561-0.449 1.011-1.011 1.011h-0.786c-0.561 0-1.011 0.449-1.011 1.011v2.246c-1.684-0.674-3.144-1.684-4.491-3.032-0.561-0.561-1.123-1.235-1.684-1.909h1.46c0.337 0 0.674 0.225 0.674 0.561v0c0 0.561 0.449 0.898 0.898 0.898v0c0.561 0 0.898-0.449 0.898-0.898v-2.695c0-0.674-0.561-1.123-1.235-1.123v0c-0.337 0-0.674-0.337-0.674-0.674v-0.674c0-0.225 0.225-0.449 0.449-0.449v0c0.561 0 0.898-0.449 0.898-1.011l-0.337-3.93c0-0.674-0.561-1.123-1.123-1.123v0c-0.561 0-1.011-0.449-1.011-1.011v0c0-0.561 0.449-1.011 1.011-1.011h0.112c0.786 0 1.46-0.674 1.46-1.46v0h0.112c0.898 0 1.572-0.786 1.572-1.684v0h0.786c0.561 0 1.011-0.449 1.011-1.011v-2.021c0-0.561-0.449-1.011-1.011-1.011v0c-0.449 0-0.786-0.337-0.786-0.786v-0.786c2.021-1.011 4.154-1.572 6.512-1.684h0.561c2.807 0 5.389 0.786 7.747 2.246l-4.94 0.112c-0.561 0-1.011 0.449-1.011 1.011v2.919c0 0.561 0.449 1.011 1.011 1.011l5.277-0.112c0.449 0 0.898 0.337 0.898 0.786v0.112c0 0.449-0.337 0.786-0.674 0.786h-3.593c-0.561 0-0.898 0.449-0.898 0.898v0c0 0.449-0.337 0.898-0.898 0.898h-0.449c-0.225 0-0.337-0.112-0.337-0.337v-0.337c0-0.337-0.337-0.674-0.674-0.674h-1.46c-0.337 0-0.674 0.337-0.674 0.674v0c0 0.337-0.225 0.674-0.674 0.674h-1.347c-0.449 0-0.898 0.449-0.898 0.898v2.807c0 0.449 0.449 0.898 0.898 0.898h1.235c0.337 0 0.674-0.337 0.674-0.674v0c0-0.337 0.225-0.561 0.561-0.561h3.256c0.449 0 0.898 0.337 0.898 0.898v1.011c0 0.561 0.449 0.898 1.011 0.898h2.358c0.561 0 0.898 0.449 0.898 0.898v0c0 0.449 0.449 0.898 0.898 0.898h0.674c0.337 0 0.561 0.225 0.561 0.561v0.112c0 0.449 0.449 0.898 0.898 0.898h2.919c-1.684 4.042-5.053 7.411-9.319 8.982z"></path>
<path fill="#abc4c5" d="M14.484 10.667c0 0.337-0.225 0.561-0.561 0.561h-0.449c-0.337 0-0.561-0.225-0.561-0.561v-1.347c0-0.337 0.225-0.561 0.561-0.561h0.449c0.337 0 0.561 0.225 0.561 0.561v1.347z"></path>
<path fill="#c6a000" d="M13.474 24.702c-0.674 0-1.123-0.225-1.46-0.561-0.449-0.449-0.449-1.123-0.449-1.123v-2.246c0-3.593-3.256-3.705-3.368-3.705v-0.449c0 0 3.818 0 3.818 4.154v2.246c0 0 0 0.449 0.337 0.786 0.225 0.225 0.674 0.449 1.123 0.449v0.449z"></path>
<path fill="#c6a000" d="M15.944 24.814v-0.449c2.47 0 5.053-0.225 7.635-0.449v0.449c-2.47 0.225-5.053 0.337-7.635 0.449z"></path>
<path fill="#c6a000" d="M15.382 24.814c-2.358 0-4.604-0.112-6.849-0.337v-0.449c2.358 0.225 4.828 0.337 7.411 0.337v0.449c-0.112 0-0.337 0-0.561 0z"></path>
<path fill="#c6a000" d="M23.579 24.365v-0.449c2.919-0.337 5.053-0.674 6.175-0.898l0.112 0.449c-1.123 0.112-3.368 0.561-6.288 0.898z"></path>
<path fill="#c6a000" d="M8.533 24.365c-2.246-0.225-4.379-0.561-6.4-1.123l0.112-0.337c2.021 0.449 4.154 0.898 6.4 1.123l-0.112 0.337z"></path>
<path fill="#c6a000" d="M2.133 23.354h-0.112l-0.337-0.112 0.112-0.449 0.337 0.112h0.112z"></path>
<path fill="#c6a000" d="M15.382 17.516c-2.582 0-5.053-0.112-7.411-0.449v-0.449c2.47 0.337 5.165 0.449 7.972 0.449v0.449c-0.112 0-0.337 0-0.561 0z"></path>
<path fill="#c6a000" d="M24.028 17.067v-0.449c3.93-0.449 6.4-1.011 6.4-1.011l0.112 0.449c-0.112 0-2.582 0.561-6.512 1.011z"></path>
<path fill="#c6a000" d="M7.972 17.179c-2.246-0.225-4.267-0.674-6.288-1.123l0.112-0.449c1.909 0.449 4.042 0.898 6.175 1.123v0.449z"></path>
<path fill="#c6a000" d="M15.944 17.516v-0.449c2.582 0 5.277-0.225 7.972-0.449v0.449c-2.582 0.225-5.277 0.449-7.972 0.449z"></path>
<path fill="#c6a000" d="M23.691 9.881v-0.449c2.807-0.337 4.94-0.674 6.063-0.898v0.449c-1.123 0.112-3.256 0.561-6.063 0.898z"></path>
<path fill="#c6a000" d="M8.197 9.881c-2.021-0.225-4.042-0.561-5.951-1.011l0.112-0.449c1.909 0.449 3.818 0.786 5.951 1.011l-0.112 0.449z"></path>
<path fill="#c6a000" d="M15.944 10.33v-0.449c2.47 0 5.053-0.225 7.635-0.449v0.449c-2.47 0.225-5.053 0.449-7.635 0.449z"></path>
<path fill="#c6a000" d="M15.382 10.33c-2.47 0-4.94-0.112-7.186-0.337v-0.449c2.47 0.225 5.053 0.449 7.747 0.337v0.449c-0.112 0-0.337 0-0.561 0z"></path>
<path fill="#c6a000" d="M9.319 30.203c0-0.225-0.561-2.47-1.011-6.063h0.449c0.449 3.481 0.898 5.726 1.011 5.951l-0.449 0.112z"></path>
<path fill="#c6a000" d="M8.309 24.253c-0.225-2.47-0.449-4.94-0.449-7.298h0.449c0.112 2.358 0.225 4.828 0.561 7.298h-0.561z"></path>
<path fill="#c6a000" d="M9.319 30.203l0.449-0.112v0.112z"></path>
<path fill="#c6a000" d="M9.656 1.909l-0.449-0.112 0.112-0.337 0.449 0.112-0.112 0.225z"></path>
<path fill="#c6a000" d="M8.421 10.218h-0.449c0-0.112 0-0.337 0-0.449h0.449c0 0.112 0 0.225 0 0.449z"></path>
<path fill="#c6a000" d="M7.747 15.495c0-0.112 0-0.225 0-0.449 0-0.112 0-0.337 0-0.449h0.449c0 0.112 0 0.337 0 0.449s0 0.225 0 0.449h-0.449zM8.197 13.698h-0.449c0-0.337 0-0.561 0-0.898h0.449c0 0.337 0 0.674 0 0.898zM8.309 12.014h-0.449c0-0.337 0-0.561 0-0.898h0.449c0 0.225 0 0.561 0 0.898z"></path>
<path fill="#c6a000" d="M7.86 16.954c0-0.112 0-0.337 0-0.449h0.449c0 0.112 0 0.337 0 0.449h-0.449z"></path>
<path fill="#c6a000" d="M8.421 9.768h-0.449c0.225-2.807 0.674-5.389 1.235-7.86l0.449 0.112c-0.561 2.358-1.011 4.94-1.235 7.747z"></path>
<path fill="#c6a000" d="M23.803 16.842c0-2.358-0.112-4.716-0.337-7.186h0.449c0.225 2.47 0.337 4.828 0.337 7.186h-0.449z"></path>
<path fill="#c6a000" d="M22.681 30.54l-0.449-0.112 0.112-0.225v-0.112l0.449 0.112-0.112 0.112z"></path>
<path fill="#c6a000" d="M22.793 30.203l-0.449-0.112c0.449-1.909 0.786-3.93 1.011-5.951h0.449c-0.225 2.133-0.561 4.154-1.011 6.063z"></path>
<path fill="#c6a000" d="M23.467 9.656c-0.449-4.379-1.123-7.411-1.123-7.747l0.449-0.112c0.112 0.337 0.786 3.368 1.123 7.747l-0.449 0.112z"></path>
<path fill="#c6a000" d="M23.803 24.14h-0.449c0.225-2.358 0.337-4.716 0.337-7.298h0.449c0.112 2.47-0.112 4.94-0.337 7.298z"></path>
<path fill="#c6a000" d="M15.832 10.105h0.449v7.186h-0.449v-7.186z"></path>
<path fill="#c6a000" d="M15.832 17.291h0.449v7.186h-0.449v-7.186z"></path>
<path fill="#c6a000" d="M15.832 0.898h0.449v9.207h-0.449v-9.207z"></path>
<path fill="#c6a000" d="M27.509 13.923c-0.225 0-1.011 0-1.572-0.561-0.337-0.337-0.561-0.898-0.561-1.572 0-1.909-1.909-2.021-2.021-2.021v-0.449c0 0 2.358 0.112 2.358 2.358 0 0.561 0.112 1.011 0.449 1.235 0.449 0.449 1.235 0.449 1.235 0.449l0.112 0.561z"></path>
<path fill="#c6a000" d="M28.070 13.586h0.674v0.449h-0.674v-0.449z"></path>
<path fill="#c6a000" d="M23.916 17.067c-0.674 0-1.123-0.225-1.46-0.561-0.449-0.449-0.449-1.123-0.449-1.123v-1.572c0-1.123-0.337-2.021-0.898-2.582-1.011-1.011-2.582-1.011-2.582-1.011h-4.379v-0.449h4.379c0.112 0 1.684 0 2.919 1.123 0.674 0.674 1.123 1.684 1.123 2.919v1.572c0 0 0 0.449 0.337 0.786 0.225 0.225 0.674 0.449 1.123 0.449v0.449z"></path>
<path fill="#c6a000" d="M20.323 23.467v-0.449c1.572 0 1.572-1.572 1.572-1.684v-2.807c0-0.561 0.225-1.123 0.561-1.46 0.561-0.561 1.46-0.561 1.46-0.561h0.225v0.449h-0.225c0 0-0.786 0-1.235 0.449-0.225 0.225-0.449 0.674-0.449 1.123v2.807c0.112 0.786-0.225 2.133-1.909 2.133z"></path>
<path fill="#c6a000" d="M19.312 23.018h0.674v0.449h-0.674v-0.449z"></path>
<path fill="#c6a000" d="M18.189 23.018h0.674v0.449h-0.674v-0.449z"></path>
<path fill="#c6a000" d="M10.779 7.635h-1.011v-0.449h1.011c0.112 0 1.572 0 1.572-1.684 0-1.572-1.46-1.684-1.572-1.684h-1.909v-0.449h1.909c0 0 2.021 0.112 2.021 2.133 0 2.133-2.021 2.133-2.021 2.133z"></path>
<path fill="#c6a000" d="M17.516 29.867c-0.561 0-1.011-0.112-1.347-0.449-0.449-0.561-0.449-1.235-0.449-1.347v-3.481h0.449v3.593c0 0 0 0.561 0.337 0.898 0.225 0.225 0.561 0.337 1.011 0.337v0.449z"></path>
<path fill="#c6a000" d="M12.351 17.516v-0.449c0.449 0 0.786-0.112 1.123-0.337 0.449-0.449 0.449-1.123 0.449-1.123v-1.46c0-1.46 1.347-2.021 2.021-2.021h0.337v0.449h-0.337c0 0-1.572 0.112-1.572 1.572v1.46c0 0 0 0.898-0.561 1.46-0.449 0.225-0.898 0.449-1.46 0.449z"></path>
<path fill="#c6a000" d="M14.147 10.33v0-0.449c0 0 0.786 0 1.347-0.449 0.225-0.225 0.337-0.449 0.337-0.898v-1.684c0-0.674 0.449-2.021 2.021-2.021h1.796v0.449h-1.797c-1.572 0-1.572 1.46-1.572 1.572v1.796c0 0.449-0.112 0.898-0.449 1.235-0.561 0.337-1.347 0.449-1.684 0.449z"></path>
<path fill="#abc4c5" d="M15.944 1.011c8.309 0 14.933 6.737 14.933 15.046s-6.737 15.046-14.933 15.046-14.933-6.737-14.933-15.046c0-8.309 6.737-15.046 14.933-15.046zM15.944 0c-8.758 0-15.944 7.186-15.944 16.056s7.186 16.056 15.944 16.056c8.87 0 15.944-7.186 15.944-16.056s-7.074-16.056-15.944-16.056z"></path>
</svg>
