<svg xmlns="http://www.w3.org/2000/svg" width="125" height="32" viewBox="0 0 125 32"><title>SciencesPO_Appellations_CentreHistoire_RGB</title><path fill="#e6142d" d="M1.863 14.366s2.047 1.994 4.71 1.994c1.437 0 2.741-.747 2.741-2.289C9.314 10.693.4 11.277.4 5.478.4 2.341 3.111 0 6.731 0c3.725 0 5.641 2.021 5.641 2.021l-1.489 2.812A6.854 6.854 0 0 0 6.72 3.186l-.015-.001c-1.595 0-2.847.931-2.847 2.263 0 3.352 8.887 2.526 8.887 8.567 0 3.005-2.289 5.535-6.225 5.535l-.152.001a9.115 9.115 0 0 1-6.369-2.582l.002.002zm18.82-7.68c3.189 0 4.701 1.823 4.701 1.823l-1.344 2.087a4.781 4.781 0 0 0-3.183-1.318h-.006l-.087-.001a3.633 3.633 0 0 0-3.629 3.8v-.008a3.725 3.725 0 0 0 3.723 3.836l.094-.001h-.005c2.06 0 3.598-1.56 3.598-1.56l1.164 2.157a6.943 6.943 0 0 1-4.877 1.992l-.165-.002h.008c-4.055 0-6.643-2.856-6.643-6.405 0-3.475 2.588-6.401 6.643-6.401zm6.836-4.489h3.023v2.711h-3.023zm0 4.797h3.044v12.213h-3.044zm11.273-.303c3.515 0 5.421 2.566 5.421 5.803 0 .36-.07 1.173-.07 1.173h-8.444c.193 2.135 1.845 3.238 3.668 3.238a6.016 6.016 0 0 0 3.525-1.353l-.011.009 1.173 2.197a7.594 7.594 0 0 1-4.875 1.757h-.043.002c-4.055 0-6.59-2.926-6.59-6.405 0-3.765 2.566-6.401 6.212-6.401zm2.319 4.911c-.048-1.656-1.081-2.544-2.421-2.544-1.56 0-2.636.958-2.926 2.544zm5.141-4.626h2.926v1.415a7.625 7.625 0 0 1-.052.874l.003-.035h.048c.81-1.525 2.388-2.546 4.204-2.546l.143.002h-.007c2.711 0 4.244 1.415 4.244 4.652v7.864h-3.023v-7.24c0-1.485-.382-2.495-1.942-2.495h-.029a3.375 3.375 0 0 0-3.252 2.472l-.006.024a5.041 5.041 0 0 0-.217 1.482l.002.156v-.008 5.614H46.25zm19.975-.29c3.189 0 4.701 1.823 4.701 1.823l-1.344 2.087a4.781 4.781 0 0 0-3.183-1.318h-.006l-.087-.001a3.633 3.633 0 0 0-3.629 3.8v-.008a3.721 3.721 0 0 0 3.719 3.836l.099-.001h-.005c2.065 0 3.598-1.56 3.598-1.56l1.173 2.157a6.943 6.943 0 0 1-4.877 1.992l-.165-.002h.008c-4.055 0-6.642-2.856-6.642-6.405 0-3.475 2.588-6.401 6.642-6.401zm12.2.005c3.515 0 5.421 2.566 5.421 5.803 0 .36-.07 1.173-.07 1.173h-8.457c.193 2.135 1.845 3.238 3.668 3.238a6.016 6.016 0 0 0 3.525-1.353l-.011.009 1.173 2.197a7.594 7.594 0 0 1-4.875 1.757h-.043.002c-4.055 0-6.59-2.926-6.59-6.405 0-3.765 2.566-6.401 6.212-6.401zm2.307 4.911c-.048-1.656-1.081-2.544-2.421-2.544-1.56 0-2.636.958-2.926 2.544zm5.979 3.959a5.094 5.094 0 0 0 3.328 1.344h.006c.879 0 1.608-.382 1.608-1.103 0-1.823-5.948-1.582-5.948-5.518 0-2.28 2.038-3.598 4.674-3.598 2.759 0 4.099 1.393 4.099 1.393l-1.116 2.254a4.62 4.62 0 0 0-2.947-1.055h-.052.003c-.791 0-1.56.334-1.56 1.103 0 1.727 5.948 1.511 5.948 5.443 0 2.038-1.757 3.668-4.674 3.668l-.127.001a6.817 6.817 0 0 1-4.627-1.802l.005.004zM97.432.316h7.288c3.537 0 6.014 2.473 6.014 6.15s-2.473 6.225-6.014 6.225h-3.857v6.515h-3.431zm6.651 9.393c1.995 0 3.168-1.278 3.168-3.247s-1.173-3.194-3.115-3.194h-3.273v6.44zm13.707-3.023c3.743 0 6.739 2.662 6.739 6.401s-2.996 6.405-6.717 6.405-6.739-2.636-6.739-6.405 2.996-6.401 6.717-6.401zm.022 10.215c1.968 0 3.62-1.533 3.62-3.813a3.638 3.638 0 1 0-7.267.008v-.009a3.643 3.643 0 0 0 3.638 3.813h.009zM3.435 25.226a3.376 3.376 0 0 1 2.419.881l-.003-.002-.571.879a2.874 2.874 0 0 0-1.784-.69h-.004l-.065-.001a2.135 2.135 0 0 0-2.132 2.256v-.006a2.197 2.197 0 0 0 2.192 2.342h.005a2.815 2.815 0 0 0 1.902-.83l.628.879a3.503 3.503 0 0 1-2.515 1.059l-.063-.001h.003a3.388 3.388 0 0 1-.006-6.77h.006zm3.691.114h3.923v1.024H8.316v1.713h2.205v1.024H8.316v1.762h2.878v1.024H7.126v-6.546zm5.302-.004h1.191l2.482 3.783c.175.278.357.611.519.955l.026.06s-.066-.628-.066-1.015v-3.783h1.221v6.55h-1.199l-2.482-3.769a9.271 9.271 0 0 1-.519-.955l-.025-.06s.066.628.066 1.015v3.774h-1.213zm8.369 1.028h-2.148V25.34h5.492v1.024h-2.153v5.522h-1.191v-5.522zm4.209-1.028h2.113a3.022 3.022 0 0 1 1.339.192l-.021-.007a1.853 1.853 0 0 1 1.072 1.794v-.005l.001.071c0 .76-.449 1.414-1.097 1.713l-.012.005c.082.093.155.199.215.312l.004.009 1.349 2.443h-1.318l-1.318-2.443h-1.142v2.443h-1.186zm2.258 3.075a.95.95 0 0 0 1.032-1.036v.004c0-.628-.268-1.015-1.199-1.015h-.905v2.047zm3.813-3.071h3.919v1.024h-2.728v1.713h2.205v1.024h-2.205v1.762h2.878v1.024h-4.068v-6.546zm7.544-.004h2.232c2.021 0 3.339 1.199 3.339 3.264s-1.318 3.282-3.339 3.282h-2.232zm2.165 5.526c1.318 0 2.197-.786 2.197-2.258s-.879-2.241-2.197-2.241h-.975v4.503zm4.666-5.636h1.076l-.681 2.021h-.83l.435-2.021zm2.122.114h1.191v2.776h2.996V25.34h1.191v6.546h-1.191V29.14h-2.996v2.746h-1.191V25.34zm7.038 0h1.191v6.55h-1.191v-6.55zm2.996 4.868c.432.399 1 .656 1.627.694h.007c.501 0 .949-.259.949-.795 0-1.173-3.075-.971-3.075-2.979 0-1.09.94-1.902 2.197-1.902l.103-.002c.712 0 1.362.267 1.855.707l-.003-.002-.518.966a2.384 2.384 0 0 0-1.445-.571H59.3c-.554 0-.988.325-.988.782 0 1.164 3.075.879 3.075 2.97 0 1.041-.791 1.92-2.157 1.92l-.066.001a3.16 3.16 0 0 1-2.193-.88l.001.001zm6.322-3.844h-2.148V25.34h5.487v1.024h-2.148v5.522H63.93v-5.522zm7.082-1.138l.079-.001a3.308 3.308 0 0 1 3.308 3.308v.033-.002l.002.122a3.386 3.386 0 1 1-6.772-.128V28.532a3.308 3.308 0 0 1 3.391-3.307h-.004zm.004 5.68a2.219 2.219 0 0 0 2.139-2.356v.006l.002-.097a2.161 2.161 0 1 0-4.32.102v-.005a2.219 2.219 0 0 0 2.155 2.342h.003zm4.595-5.566h1.191v6.55h-1.191v-6.55zm2.847-.004h2.113a3.022 3.022 0 0 1 1.339.192l-.021-.007a1.853 1.853 0 0 1 1.072 1.794v-.005l.001.071c0 .76-.449 1.414-1.097 1.713l-.012.005c.083.093.156.199.215.312l.004.009 1.349 2.443h-1.318l-1.318-2.443h-1.142v2.443h-1.191zm2.258 3.075a.95.95 0 0 0 1.033-1.036v.004c0-.628-.268-1.015-1.199-1.015h-.905v2.047zm3.813-3.071h3.923v1.024h-2.733v1.713h2.205v1.024h-2.205v1.762h2.878v1.024h-4.068v-6.546z"/></svg>