<?xml version="1.0" encoding="UTF-8" standalone="no"?>
<!-- Created with Inkscape (http://www.inkscape.org/) -->

<svg
   xmlns:dc="http://purl.org/dc/elements/1.1/"
   xmlns:cc="http://creativecommons.org/ns#"
   xmlns:rdf="http://www.w3.org/1999/02/22-rdf-syntax-ns#"
   xmlns:svg="http://www.w3.org/2000/svg"
   xmlns="http://www.w3.org/2000/svg"
   xmlns:sodipodi="http://sodipodi.sourceforge.net/DTD/sodipodi-0.dtd"
   xmlns:inkscape="http://www.inkscape.org/namespaces/inkscape"
   width="764"
   height="240"
   viewBox="0 0 202.14167 63.500002"
   version="1.1"
   id="svg8"
   inkscape:version="0.92.3 (2405546, 2018-03-11)"
   sodipodi:docname="logo_ouestware_text.svg">
  <defs
     id="defs2" />
  <sodipodi:namedview
     id="base"
     pagecolor="#ffffff"
     bordercolor="#666666"
     borderopacity="1.0"
     inkscape:pageopacity="0.0"
     inkscape:pageshadow="2"
     inkscape:zoom="0.7"
     inkscape:cx="322.91999"
     inkscape:cy="-51.454298"
     inkscape:document-units="mm"
     inkscape:current-layer="layer1"
     showgrid="false"
     units="px"
     inkscape:window-width="2560"
     inkscape:window-height="1398"
     inkscape:window-x="3840"
     inkscape:window-y="20"
     inkscape:window-maximized="0" />
  <metadata
     id="metadata5">
    <rdf:RDF>
      <cc:Work
         rdf:about="">
        <dc:format>image/svg+xml</dc:format>
        <dc:type
           rdf:resource="http://purl.org/dc/dcmitype/StillImage" />
        <dc:title></dc:title>
      </cc:Work>
    </rdf:RDF>
  </metadata>
  <g
     inkscape:label="Layer 1"
     inkscape:groupmode="layer"
     id="layer1"
     transform="translate(0,-233.49999)">
    <g
       id="g843"
       transform="translate(-4.0880255e-7,-18.520833)">
      <g
         id="flowRoot815"
         style="font-style:normal;font-weight:normal;font-size:40px;line-height:1.25;font-family:sans-serif;letter-spacing:0px;word-spacing:0px;fill:#000000;fill-opacity:1;stroke:none"
         transform="matrix(0.81789037,0,0,0.81789037,315.97023,246.59198)"
         aria-label="OuestWare">
        <path
           id="path900"
           style="font-style:normal;font-variant:normal;font-weight:normal;font-stretch:normal;font-family:Raleway;-inkscape-font-specification:Raleway"
           d="m -330.71484,59.746788 q -3,0 -5.44,-1.2 -2.44,-1.2 -4.2,-3.24 -1.76,-2.08 -2.72,-4.64 -0.96,-2.6 -0.96,-5.32 0,-2.84 1,-5.4 1,-2.6 2.8,-4.6 1.84,-2.04 4.28,-3.2 2.44,-1.2 5.28,-1.2 3,0 5.44,1.24 2.44,1.24 4.16,3.32 1.76,2.08 2.72,4.64 0.96,2.56 0.96,5.24 0,2.84 -1,5.44 -1,2.56 -2.8,4.6 -1.8,2 -4.24,3.16 -2.44,1.16 -5.28,1.16 z m -10.52,-14.4 q 0,2.32 0.76,4.48 0.76,2.12 2.16,3.8 1.4,1.64 3.32,2.64 1.96,0.96 4.28,0.96 2.44,0 4.36,-1 1.96,-1.04 3.32,-2.72 1.4,-1.72 2.12,-3.84 0.72,-2.12 0.72,-4.32 0,-2.32 -0.76,-4.44 -0.76,-2.12 -2.2,-3.8 -1.4,-1.68 -3.32,-2.64 -1.92,-0.96 -4.24,-0.96 -2.4,0 -4.36,1 -1.92,1 -3.32,2.72 -1.36,1.68 -2.12,3.8 -0.72,2.12 -0.72,4.32 z"
           inkscape:connector-curvature="0" />
        <path
           id="path902"
           style="font-style:normal;font-variant:normal;font-weight:normal;font-stretch:normal;font-family:Raleway;-inkscape-font-specification:Raleway"
           d="m -312.83672,50.946788 v -12.24 h 2.72 v 11.76 q 0,3.56 1.2,5.32 1.24,1.76 3.64,1.76 1.6,0 3.08,-0.68 1.52,-0.72 2.68,-2 1.16,-1.32 1.76,-3.04 v -13.12 h 2.72 v 17.56 q 0,0.56 0.24,0.84 0.24,0.24 0.72,0.28 v 2.16 q -0.48,0.04 -0.76,0.04 -0.28,0.04 -0.52,0.04 -0.8,-0.08 -1.4,-0.64 -0.56,-0.56 -0.6,-1.36 l -0.08,-2.8 q -1.36,2.4 -3.72,3.76 -2.32,1.36 -5.04,1.36 -3.28,0 -4.96,-2.28 -1.68,-2.28 -1.68,-6.72 z"
           inkscape:connector-curvature="0" />
        <path
           id="path904"
           style="font-style:normal;font-variant:normal;font-weight:normal;font-stretch:normal;font-family:Raleway;-inkscape-font-specification:Raleway"
           d="m -279.88672,59.946788 q -2.24,0 -4.16,-0.84 -1.92,-0.88 -3.32,-2.36 -1.4,-1.52 -2.2,-3.48 -0.76,-1.96 -0.76,-4.2 0,-2.92 1.32,-5.36 1.36,-2.44 3.72,-3.88 2.36,-1.48 5.36,-1.48 3.08,0 5.36,1.48 2.32,1.48 3.64,3.92 1.32,2.4 1.32,5.28 0,0.32 0,0.64 0,0.28 -0.04,0.44 h -17.84 q 0.2,2.24 1.24,4 1.08,1.72 2.76,2.76 1.72,1 3.72,1 2.04,0 3.84,-1.04 1.84,-1.04 2.56,-2.72 l 2.36,0.64 q -0.64,1.48 -1.96,2.68 -1.32,1.2 -3.12,1.88 -1.76,0.64 -3.8,0.64 z m -7.68,-11.8 h 15.4 q -0.16,-2.28 -1.24,-4 -1.04,-1.72 -2.76,-2.68 -1.68,-1 -3.72,-1 -2.04,0 -3.72,1 -1.68,0.96 -2.76,2.72 -1.04,1.72 -1.2,3.96 z"
           inkscape:connector-curvature="0" />
        <path
           id="path906"
           style="font-style:normal;font-variant:normal;font-weight:normal;font-stretch:normal;font-family:Raleway;-inkscape-font-specification:Raleway"
           d="m -258.53109,59.946788 q -2.56,0 -4.76,-0.84 -2.2,-0.84 -3.8,-2.56 l 1.12,-1.92 q 1.76,1.64 3.52,2.4 1.8,0.72 3.8,0.72 2.44,0 3.96,-0.96 1.52,-1 1.52,-2.84 0,-1.24 -0.76,-1.88 -0.72,-0.68 -2.12,-1.08 -1.36,-0.44 -3.28,-0.92 -2.16,-0.6 -3.64,-1.24 -1.44,-0.68 -2.2,-1.68 -0.72,-1.04 -0.72,-2.68 0,-2.04 1,-3.36 1.04,-1.36 2.8,-2.04 1.8,-0.72 4,-0.72 2.4,0 4.24,0.76 1.84,0.76 3,2.12 l -1.32,1.84 q -1.12,-1.28 -2.68,-1.88 -1.52,-0.64 -3.4,-0.64 -1.28,0 -2.44,0.36 -1.16,0.32 -1.92,1.12 -0.72,0.76 -0.72,2.12 0,1.12 0.56,1.76 0.56,0.6 1.68,1.04 1.12,0.4 2.76,0.88 2.36,0.64 4.12,1.32 1.76,0.64 2.72,1.68 0.96,1.04 0.96,2.92 0,2.92 -2.2,4.56 -2.2,1.64 -5.8,1.64 z"
           inkscape:connector-curvature="0" />
        <path
           id="path908"
           style="font-style:normal;font-variant:normal;font-weight:normal;font-stretch:normal;font-family:Raleway;-inkscape-font-specification:Raleway"
           d="m -236.07422,58.546788 q -0.32,0.12 -1,0.44 -0.68,0.32 -1.64,0.56 -0.96,0.24 -2.08,0.24 -1.16,0 -2.2,-0.44 -1,-0.44 -1.6,-1.32 -0.6,-0.92 -0.6,-2.24 v -14.92 h -2.88 v -2.16 h 2.88 v -7.04 h 2.72 v 7.04 h 4.8 v 2.16 h -4.8 v 14.16 q 0.08,1.12 0.8,1.68 0.76,0.56 1.72,0.56 1.12,0 2.04,-0.36 0.92,-0.4 1.12,-0.56 z"
           inkscape:connector-curvature="0" />
        <path
           id="path910"
           style="font-style:normal;font-variant:normal;font-weight:normal;font-stretch:normal;font-family:Raleway;-inkscape-font-specification:Raleway"
           d="m -222.56859,31.346788 h 2.64 l 4,10.08 4.04,-10.08 h 2.68 l -4.96,12.12 5.44,12.84 10.28,-25.16 h 3.04 l -12.04,28.4 h -2.48 l -5.96,-14.04 -6,14.04 h -2.44 l -12,-28.4 h 3 l 10.32,25.16 5.4,-12.84 z"
           inkscape:connector-curvature="0" />
        <path
           id="path912"
           style="font-style:normal;font-variant:normal;font-weight:normal;font-stretch:normal;font-family:Raleway;-inkscape-font-specification:Raleway"
           d="m -195.72297,53.546788 q 0,-1.96 1.12,-3.36 1.12,-1.44 3.08,-2.2 2,-0.8 4.6,-0.8 1.52,0 3.16,0.24 1.64,0.24 2.92,0.72 v -1.76 q 0,-2.64 -1.56,-4.2 -1.56,-1.56 -4.32,-1.56 -1.68,0 -3.32,0.64 -1.6,0.6 -3.36,1.8 l -1.04,-1.92 q 2.04,-1.4 4,-2.08 1.96,-0.72 4,-0.72 3.84,0 6.08,2.2 2.24,2.2 2.24,6.08 v 9.64 q 0,0.56 0.24,0.84 0.24,0.24 0.76,0.28 v 2.16 q -0.44,0.04 -0.76,0.08 -0.32,0.04 -0.48,0 -1,-0.04 -1.52,-0.64 -0.52,-0.6 -0.56,-1.28 l -0.04,-1.52 q -1.4,1.8 -3.64,2.8 -2.24,0.96 -4.56,0.96 -2,0 -3.64,-0.84 -1.6,-0.88 -2.52,-2.32 -0.88,-1.48 -0.88,-3.24 z m 13.96,1.6 q 0.44,-0.56 0.68,-1.08 0.24,-0.52 0.24,-0.92 v -3.04 q -1.36,-0.52 -2.84,-0.8 -1.44,-0.28 -2.92,-0.28 -2.92,0 -4.72,1.16 -1.8,1.16 -1.8,3.16 0,1.16 0.6,2.2 0.6,1 1.76,1.68 1.16,0.64 2.72,0.64 1.96,0 3.64,-0.76 1.72,-0.76 2.64,-1.96 z"
           inkscape:connector-curvature="0" />
        <path
           id="path914"
           style="font-style:normal;font-variant:normal;font-weight:normal;font-stretch:normal;font-family:Raleway;-inkscape-font-specification:Raleway"
           d="m -161.84609,41.106788 q -2.72,0.08 -4.8,1.52 -2.04,1.44 -2.88,3.96 v 12.96 h -2.72 v -20.84 h 2.56 v 5 q 1.08,-2.2 2.84,-3.56 1.8,-1.36 3.8,-1.52 0.4,-0.04 0.68,-0.04 0.32,0 0.52,0.04 z"
           inkscape:connector-curvature="0" />
        <path
           id="path916"
           style="font-style:normal;font-variant:normal;font-weight:normal;font-stretch:normal;font-family:Raleway;-inkscape-font-specification:Raleway"
           d="m -149.80859,59.946788 q -2.24,0 -4.16,-0.84 -1.92,-0.88 -3.32,-2.36 -1.4,-1.52 -2.2,-3.48 -0.76,-1.96 -0.76,-4.2 0,-2.92 1.32,-5.36 1.36,-2.44 3.72,-3.88 2.36,-1.48 5.36,-1.48 3.08,0 5.36,1.48 2.32,1.48 3.64,3.92 1.32,2.4 1.32,5.28 0,0.32 0,0.64 0,0.28 -0.04,0.44 h -17.84 q 0.2,2.24 1.24,4 1.08,1.72 2.76,2.76 1.72,1 3.72,1 2.04,0 3.84,-1.04 1.84,-1.04 2.56,-2.72 l 2.36,0.64 q -0.64,1.48 -1.96,2.68 -1.32,1.2 -3.12,1.88 -1.76,0.64 -3.8,0.64 z m -7.68,-11.8 h 15.4 q -0.16,-2.28 -1.24,-4 -1.04,-1.72 -2.76,-2.68 -1.68,-1 -3.72,-1 -2.04,0 -3.72,1 -1.68,0.96 -2.76,2.72 -1.04,1.72 -1.2,3.96 z"
           inkscape:connector-curvature="0" />
      </g>
      <g
         transform="matrix(0.04153259,0,0,0.04153259,-1.1965468,269.05458)"
         id="g842">
        <path
           inkscape:connector-curvature="0"
           d="m 298.166,35.805 -16.033,44.05 A 283.961,283.961 0 0 0 71.766,380.322 l -35.961,30.174 44.05,16.031 a 283.961,283.961 0 0 0 300.47,210.37 l 30.171,35.958 16.031,-44.048 a 283.961,283.961 0 0 0 210.37,-300.47 l 35.958,-30.171 -44.048,-16.033 A 283.961,283.961 0 0 0 328.34,71.766 Z m 51.545,102.601 A 216.599,193.837 80 0 1 545.223,320.672 216.599,193.837 80 0 1 391.943,567.639 216.599,193.837 80 0 1 163.44,387.99 216.599,193.837 80 0 1 316.72,141.023 a 216.599,193.837 80 0 1 32.992,-2.617 z"
           id="path823" />
        <g
           id="boussole">
          <path
             style="fill:#2a4657"
             inkscape:connector-curvature="0"
             d="m 305.614,326.089 -5.636,4.73 -49.936,41.9 61.256,22.295 6.913,2.516 29.422,-42.019 -42.02,-29.422 z"
             id="path825" />
          <path
             inkscape:connector-curvature="0"
             d="m 340.159,244.02 -22.294,61.254 -5.522,15.168 v 0.002 l 47.107,32.983 -32.985,47.108 10.378,12.366 41.9,49.936 22.295,-61.255 5.522,-15.17 12.365,-10.375 49.935,-41.902 -61.255,-22.293 -15.167,-5.52 -10.378,-12.367 -41.901,-49.936 z"
             id="path827" />
        </g>
      </g>
    </g>
  </g>
</svg>
